<?xml version="1.0" encoding="UTF-8"?>
<svg id="Layer_1" xmlns="http://www.w3.org/2000/svg" version="1.1" viewBox="0 0 512 512">
  <!-- Generator: Adobe Illustrator 29.8.1, SVG Export Plug-In . SVG Version: 2.1.1 Build 2)  -->
  <defs>
    <style>
      .st0 {
        font-size: 49.46px;
      }

      .st0, .st1 {
        font-family: ChalkboardSE-Regular, 'Chalkboard SE';
      }

      .st1 {
        font-size: 102.52px;
      }

      .st2 {
        fill: #fff;
      }

      .st2, .st3 {
        stroke: #000;
        stroke-miterlimit: 10;
        stroke-width: 13px;
      }

      .st3 {
        fill: #97999c;
      }
    </style>
  </defs>
  <rect class="st2" x="39.41" y="17.74" width="440.94" height="476.52" rx="14.47" ry="14.47"/>
  <text class="st1" transform="translate(107.05 107.78)"><tspan x="0" y="0">CRAFT</tspan></text>
  <path class="st2" d="M176.31,283.33h-23.88c-10.04,0-19.31,5.36-24.33,14.05l-11.94,20.68c-5.02,8.69-5.02,19.41,0,28.1l11.94,20.68c5.02,8.69,14.3,14.05,24.33,14.05h23.88c10.04,0,19.31-5.36,24.33-14.05l11.94-20.68c5.02-8.69,5.02-19.41,0-28.1l-11.94-20.68c-5.02-8.69-14.3-14.05-24.33-14.05Z"/>
  <path class="st3" d="M260.92,228.29h-23.88c-10.04,0-19.31,5.36-24.33,14.05l-11.94,20.68c-5.02,8.69-5.02,19.41,0,28.1l11.94,20.68c5.02,8.69,14.3,14.05,24.33,14.05h23.88c10.04,0,19.31-5.36,24.33-14.05l11.94-20.68c5.02-8.69,5.02-19.41,0-28.1l-11.94-20.68c-5.02-8.69-14.3-14.05-24.33-14.05Z"/>
  <path class="st2" d="M260.92,327.11h-23.88c-10.04,0-19.31,5.36-24.33,14.05l-11.94,20.68c-5.02,8.69-5.02,19.41,0,28.1l11.94,20.68c5.02,8.69,14.3,14.05,24.33,14.05h23.88c10.04,0,19.31-5.36,24.33-14.05l11.94-20.68c5.02-8.69,5.02-19.41,0-28.1l-11.94-20.68c-5.02-8.69-14.3-14.05-24.33-14.05Z"/>
  <path class="st2" d="M349.8,274.61h-23.88c-10.04,0-19.31,5.36-24.33,14.05l-11.94,20.68c-5.02,8.69-5.02,19.41,0,28.1l11.94,20.68c5.02,8.69,14.3,14.05,24.33,14.05h23.88c10.04,0,19.31-5.36,24.33-14.05l11.94-20.68c5.02-8.69,5.02-19.41,0-28.1l-11.94-20.68c-5.02-8.69-14.3-14.05-24.33-14.05Z"/>
  <path class="st2" d="M347.33,178.24h-23.88c-10.04,0-19.31,5.36-24.33,14.05l-11.94,20.68c-5.02,8.69-5.02,19.41,0,28.1l11.94,20.68c5.02,8.69,14.3,14.05,24.33,14.05h23.88c10.04,0,19.31-5.36,24.33-14.05l11.94-20.68c5.02-8.69,5.02-19.41,0-28.1l-11.94-20.68c-5.02-8.69-14.3-14.05-24.33-14.05Z"/>
  <path class="st2" d="M176.31,179.51h-23.88c-10.04,0-19.31,5.36-24.33,14.05l-11.94,20.68c-5.02,8.69-5.02,19.41,0,28.1l11.94,20.68c5.02,8.69,14.3,14.05,24.33,14.05h23.88c10.04,0,19.31-5.36,24.33-14.05l11.94-20.68c5.02-8.69,5.02-19.41,0-28.1l-11.94-20.68c-5.02-8.69-14.3-14.05-24.33-14.05Z"/>
  <path class="st2" d="M260.92,129.46h-23.88c-10.04,0-19.31,5.36-24.33,14.05l-11.94,20.68c-5.02,8.69-5.02,19.41,0,28.1l11.94,20.68c5.02,8.69,14.3,14.05,24.33,14.05h23.88c10.04,0,19.31-5.36,24.33-14.05l11.94-20.68c5.02-8.69,5.02-19.41,0-28.1l-11.94-20.68c-5.02-8.69-14.3-14.05-24.33-14.05Z"/>
  <text class="st0" transform="translate(131.07 475.98)"><tspan x="0" y="0">5% Success</tspan></text>
  <g>
    <path d="M73.07,32.32c-5.83,6.04-11.18,12.49-16.11,19.28-3.41,4.69,4.39,9.19,7.77,4.54,4.49-6.17,9.41-11.97,14.71-17.46,4.02-4.17-2.33-10.54-6.36-6.36h0Z"/>
    <path d="M56.87,39.41c5.27,6.03,10.94,11.67,17,16.91,4.36,3.77,10.75-2.57,6.36-6.36-6.06-5.24-11.73-10.88-17-16.91-3.82-4.37-10.16,2.02-6.36,6.36h0Z"/>
  </g>
</svg>