<?xml version="1.0" encoding="UTF-8"?>
<svg id="Layer_1" xmlns="http://www.w3.org/2000/svg" version="1.1" viewBox="0 0 512 512">
  <!-- Generator: Adobe Illustrator 29.8.1, SVG Export Plug-In . SVG Version: 2.1.1 Build 2)  -->
  <defs>
    <style>
      .st0 {
        fill: #010101;
      }

      .st1 {
        fill: #7e7e7e;
      }

      .st2 {
        opacity: .18;
      }

      .st3 {
        fill: #ececec;
      }
    </style>
  </defs>
  <g>
    <path class="st3" d="M386.08,128.3c8.41,0,20.02-.95,27.97,0,.12.01.4.54.65.65v27.97c9.74.02,19.52-.04,29.27,0,.07,24.05,0,48.14,0,72.2h-173.66c-.02-24.06.01-48.14,0-72.2-9.31-.01-18.66.03-27.97,0l-.65-.65v-27.97c48.12-.13,96.28-.02,144.39,0Z"/>
    <path class="st1" d="M242.34,156.92c-.22,0-.43,0-.65,0v-.65l.65.65Z"/>
    <path class="st1" d="M125.92,99.03h57.89v29.27h28.62v-28.29l173.66-.98c0,.22,0,.43,0,.65v28.62c-48.12-.02-96.28-.13-144.39,0-9.53.03-19.09-.02-28.62,0v28.62c9.53.03,19.09-.04,28.62,0v29.27h-28.62v85.86h28.62c.03,19.28-.02,38.6,0,57.89h28.62c-.02-33.59.03-67.22,0-100.82h173.66c0,32.28-1.15,65.78-.03,97.92.04,1.24-.06,2.46.68,3.54l-.65.65-29.27-.65c-.01,9.53.03,19.09,0,28.62-9.53.04-19.09-.03-28.62,0-.02,9.53.04,19.09,0,28.62-57.88.16-115.79-.12-173.66,0v-28.62h-28.62v29.27h-57.89c0-.22,0-.43,0-.65-.03-9.53.02-19.09,0-28.62-9.53-.01-19.09.03-28.62,0-.02-9.53.02-19.09,0-28.62-9.53-.02-19.09.03-28.62,0-.22,0-.43,0-.65,0v-173.66c.22,0,.43,0,.65,0,9.53-.03,19.09.02,28.62,0,.01-9.53-.03-19.09,0-28.62,9.53-.04,19.09.03,28.62,0,.02-9.53-.03-19.09,0-28.62,0-.22,0-.43,0-.65ZM183.8,186.19h-86.51v115.12h86.51v-115.12ZM241.69,330.58h-28.62v28.62h27.64c.07,0,.98-.91.98-.98v-27.64Z"/>
    <path class="st0" d="M443.97,331.23v27.97c-9.74.02-19.52-.04-29.27,0-.02,9.53.02,19.09,0,28.62-9.53.01-19.09-.03-28.62,0-.04,9.75.03,19.52,0,29.27H125.92c-.02-9.53.03-19.09,0-28.62h57.89v-29.27h28.62v28.62c57.88-.12,115.79.16,173.66,0,.04-9.53-.03-19.09,0-28.62,9.53-.02,19.09.04,28.62,0,.02-9.53-.02-19.09,0-28.62l29.27.65Z"/>
    <path class="st0" d="M125.92,99.03c.03-9.53-.02-19.09,0-28.62h260.17c.02,9.53-.03,19.09,0,28.62l-173.66.98v28.29h-28.62v-29.27h-57.89Z"/>
    <path class="st0" d="M68.03,156.92v173.66c-9.53-.03-19.09.02-28.62,0v-173.66c9.53-.02,19.09.03,28.62,0Z"/>
    <path class="st0" d="M415.35,128.3h28.62c.01,9.53-.03,19.09,0,28.62-9.75-.04-19.53.03-29.27,0v-27.97s.65-.65.65-.65Z"/>
    <path class="st0" d="M443.97,156.92c9.53.04,19.09-.03,28.62,0v173.66h-27.97c-.74-1.08-.63-2.31-.68-3.54-1.12-32.14.03-65.64.03-97.92,0-24.05.07-48.14,0-72.2Z"/>
    <path class="st0" d="M68.68,330.58c9.53.03,19.09-.02,28.62,0,.01,9.53-.03,19.09,0,28.62,9.53.03,19.09-.02,28.62,0,.02,9.53-.03,19.09,0,28.62h-28.62c-.01-9.53.03-19.09,0-28.62-9.03-.03-19.86.77-28.62,0l-.65-1.3c.62-9.01-.98-18.42.65-27.32Z"/>
    <path class="st0" d="M125.92,99.68c-.03,9.53.02,19.09,0,28.62-9.53.03-19.09-.05-28.62,0-.02,9.53.02,19.09,0,28.62-9.53.02-19.09-.03-28.62,0-1.68-4-.07-8.19.03-12.01.07-2.75-.05-5.51-.03-8.16.02-2.6-.02-5.21,0-7.81.85-.34.93-.6,2.2-.7,8.26-.61,17.97.08,26.42.05.02-9.53-.02-19.09,0-28.62h28.62Z"/>
    <path class="st0" d="M386.08,99.68h28.62c.75,8.84-1.03,19.34,0,27.97l-.65.65c-7.95-.95-19.56,0-27.97,0v-28.62Z"/>
    <path class="st1" d="M68.68,128.95c-.02,2.6.02,5.21,0,7.81-.36-.06-1.22.11-1.3,0-.23-.31-.15-7.44.09-7.74s.96.03,1.21-.07Z"/>
    <path class="st1" d="M415.35,128.3l-.65.65c-.25-.12-.53-.64-.65-.65l.65-.65c.01.12.53.4.65.65Z"/>
    <path class="st1" d="M68.68,359.2c-.43-.04-.87.03-1.3,0-.26-.68.64-1.22.65-1.3l.65,1.3Z"/>
    <rect class="st0" x="97.3" y="186.19" width="86.51" height="115.12"/>
    <path class="st0" d="M242.34,156.92c9.31.03,18.66-.02,27.97,0,0,24.06-.02,48.14,0,72.2.03,33.59-.02,67.22,0,100.82h-28.62c-.02-19.28.03-38.6,0-57.89-.04-28.61,0-57.25,0-85.86v-29.27c.22,0,.43,0,.65,0Z"/>
    <path class="st0" d="M241.69,128.3v28.62c-9.53-.04-19.09.03-28.62,0v-28.62c9.53-.02,19.09.03,28.62,0Z"/>
    <path class="st3" d="M241.69,186.19c0,28.61-.04,57.25,0,85.86h-28.62v-85.86h28.62Z"/>
    <path class="st0" d="M241.69,330.58v27.64c0,.07-.91.98-.98.98h-27.64v-28.62h28.62Z"/>
  </g>
  <ellipse class="st2" cx="256" cy="422.56" rx="216.59" ry="40.37"/>
</svg>